<?xml version="1.0" encoding="UTF-8" standalone="no"?>
<!-- Generator: Adobe Illustrator 19.0.0, SVG Export Plug-In . SVG Version: 6.00 Build 0)  -->

<svg
   xmlns:dc="http://purl.org/dc/elements/1.1/"
   xmlns:cc="http://creativecommons.org/ns#"
   xmlns:rdf="http://www.w3.org/1999/02/22-rdf-syntax-ns#"
   xmlns:svg="http://www.w3.org/2000/svg"
   xmlns="http://www.w3.org/2000/svg"
   xmlns:sodipodi="http://sodipodi.sourceforge.net/DTD/sodipodi-0.dtd"
   xmlns:inkscape="http://www.inkscape.org/namespaces/inkscape"
   version="1.1"
   id="Capa_1"
   x="0px"
   y="0px"
   viewBox="0 0 461.137 461.137"
   style="enable-background:new 0 0 461.137 461.137;"
   xml:space="preserve"
   sodipodi:docname="dashboard.svg"
   inkscape:version="0.92.3 (2405546, 2018-03-11)"
   inkscape:export-filename="F:\workbench\workspace_2018\AutoCenter\icons\darkIconTheme\16x16\dashboard.png"
   inkscape:export-xdpi="3.3308973"
   inkscape:export-ydpi="3.3308973"><metadata
   id="metadata73"><rdf:RDF><cc:Work
       rdf:about=""><dc:format>image/svg+xml</dc:format><dc:type
         rdf:resource="http://purl.org/dc/dcmitype/StillImage" /><dc:title /></cc:Work></rdf:RDF></metadata><defs
   id="defs71" /><sodipodi:namedview
   pagecolor="#000000"
   bordercolor="#666666"
   borderopacity="1"
   objecttolerance="10"
   gridtolerance="10"
   guidetolerance="10"
   inkscape:pageopacity="0"
   inkscape:pageshadow="2"
   inkscape:window-width="1366"
   inkscape:window-height="684"
   id="namedview69"
   showgrid="false"
   inkscape:zoom="0.5117785"
   inkscape:cx="-86.951677"
   inkscape:cy="230.5685"
   inkscape:window-x="-8"
   inkscape:window-y="-8"
   inkscape:window-maximized="1"
   inkscape:current-layer="Capa_1" />
<g
   id="g6"
   style="fill:#ffffff;fill-opacity:1"
   inkscape:export-filename="F:\workbench\workspace_2018\AutoCenter\icons\darkIconTheme\16x16\dashboard.png"
   inkscape:export-xdpi="3.3308973"
   inkscape:export-ydpi="3.3308973">
	<g
   id="g4"
   style="fill:#ffffff;fill-opacity:1">
		<path
   d="M393.6,67.519c-43.1-43.3-101.8-67.6-163-67.5C103.3,0.019,0,103.319,0,230.619c0,61.2,24.3,119.8,67.5,163    c90,90,236,90,326.1,0S483.6,157.619,393.6,67.519z M84.6,382.219c17.5-19.2,38.4-34.8,61.8-46.1c78.4-37.7,172.3-18.9,230.1,46.1    C295.1,460.819,166,460.819,84.6,382.219z M390.3,367.719c-63.9-70.7-166.7-90.8-252.5-49.6c-25.2,12.1-48,29-67,49.5    c-32.8-38.1-50.9-86.7-50.8-137c0-116.1,94.5-210.6,210.6-210.6s210.6,94.5,210.6,210.6    C441.2,280.919,423.2,329.619,390.3,367.719z"
   id="path2"
   style="fill:#ffffff;fill-opacity:1" />
	</g>
</g>
<g
   id="g12"
   style="fill:#ffffff;fill-opacity:1"
   inkscape:export-filename="F:\workbench\workspace_2018\AutoCenter\icons\darkIconTheme\16x16\dashboard.png"
   inkscape:export-xdpi="3.3308973"
   inkscape:export-ydpi="3.3308973">
	<g
   id="g10"
   style="fill:#ffffff;fill-opacity:1">
		<path
   d="M230.6,51.919c-5.5,0-10,4.5-10,10v60.2c0,5.6,4.5,10,10,10s10-4.5,10-10v-60.2C240.6,56.419,236.1,51.919,230.6,51.919z"
   id="path8"
   style="fill:#ffffff;fill-opacity:1" />
	</g>
</g>
<g
   id="g18"
   style="fill:#ffffff;fill-opacity:1"
   inkscape:export-filename="F:\workbench\workspace_2018\AutoCenter\icons\darkIconTheme\16x16\dashboard.png"
   inkscape:export-xdpi="3.3308973"
   inkscape:export-ydpi="3.3308973">
	<g
   id="g16"
   style="fill:#ffffff;fill-opacity:1">
		<path
   d="M399.3,220.619h-60.2c-5.6,0-10,4.5-10,10s4.5,10,10,10h60.2c5.5,0,10-4.5,10-10S404.8,220.619,399.3,220.619z"
   id="path14"
   style="fill:#ffffff;fill-opacity:1" />
	</g>
</g>
<g
   id="g24"
   style="fill:#ffffff;fill-opacity:1"
   inkscape:export-filename="F:\workbench\workspace_2018\AutoCenter\icons\darkIconTheme\16x16\dashboard.png"
   inkscape:export-xdpi="3.3308973"
   inkscape:export-ydpi="3.3308973">
	<g
   id="g22"
   style="fill:#ffffff;fill-opacity:1">
		<path
   d="M122.1,220.619H61.9c-5.5,0-10,4.5-10,10s4.5,10,10,10h60.2c5.5,0,10-4.5,10-10S127.7,220.619,122.1,220.619z"
   id="path20"
   style="fill:#ffffff;fill-opacity:1" />
	</g>
</g>
<g
   id="g30"
   style="fill:#ffffff;fill-opacity:1"
   inkscape:export-filename="F:\workbench\workspace_2018\AutoCenter\icons\darkIconTheme\16x16\dashboard.png"
   inkscape:export-xdpi="3.3308973"
   inkscape:export-ydpi="3.3308973">
	<g
   id="g28"
   style="fill:#ffffff;fill-opacity:1">
		<path
   d="M161.3,147.219c0,0,0,0-0.1-0.1l-43-43c-3.9-3.9-10.2-4-14.1-0.1c-3.9,3.9-4,10.2-0.1,14.1c0,0,0,0,0.1,0.1l43,43    c3.9,3.9,10.2,4,14.1,0.1C165.1,157.419,165.2,151.119,161.3,147.219z"
   id="path26"
   style="fill:#ffffff;fill-opacity:1" />
	</g>
</g>
<g
   id="g36"
   style="fill:#ffffff;fill-opacity:1"
   inkscape:export-filename="F:\workbench\workspace_2018\AutoCenter\icons\darkIconTheme\16x16\dashboard.png"
   inkscape:export-xdpi="3.3308973"
   inkscape:export-ydpi="3.3308973">
	<g
   id="g34"
   style="fill:#ffffff;fill-opacity:1">
		<path
   d="M357.2,104.119c-3.9-3.9-10.2-4-14.1-0.1c0,0,0,0-0.1,0.1l-98.1,98.1c-15.7-7.9-34.9-1.6-42.9,14.1    c-7.9,15.7-1.6,34.9,14.1,42.9c15.7,7.9,34.9,1.6,42.9-14.1c4.6-9,4.6-19.7,0-28.7l98.1-98.2    C361,114.319,361.1,108.019,357.2,104.119z M230.6,242.519c-6.6,0-11.9-5.3-11.9-11.9s5.3-11.9,11.9-11.9    c6.6,0,11.9,5.3,11.9,11.9S237.2,242.519,230.6,242.519z"
   id="path32"
   style="fill:#ffffff;fill-opacity:1" />
	</g>
</g>
<g
   id="g38">
</g>
<g
   id="g40">
</g>
<g
   id="g42">
</g>
<g
   id="g44">
</g>
<g
   id="g46">
</g>
<g
   id="g48">
</g>
<g
   id="g50">
</g>
<g
   id="g52">
</g>
<g
   id="g54">
</g>
<g
   id="g56">
</g>
<g
   id="g58">
</g>
<g
   id="g60">
</g>
<g
   id="g62">
</g>
<g
   id="g64">
</g>
<g
   id="g66">
</g>
</svg>