<?xml version="1.0" encoding="UTF-8" standalone="no"?>
<!-- Generator: Adobe Illustrator 19.0.0, SVG Export Plug-In . SVG Version: 6.00 Build 0)  -->

<svg
   xmlns:dc="http://purl.org/dc/elements/1.1/"
   xmlns:cc="http://creativecommons.org/ns#"
   xmlns:rdf="http://www.w3.org/1999/02/22-rdf-syntax-ns#"
   xmlns:svg="http://www.w3.org/2000/svg"
   xmlns="http://www.w3.org/2000/svg"
   xmlns:sodipodi="http://sodipodi.sourceforge.net/DTD/sodipodi-0.dtd"
   xmlns:inkscape="http://www.inkscape.org/namespaces/inkscape"
   version="1.1"
   id="Capa_1"
   x="0px"
   y="0px"
   viewBox="0 0 368 368"
   style="enable-background:new 0 0 368 368;"
   xml:space="preserve"
   sodipodi:docname="diagnostic.svg"
   inkscape:version="0.92.3 (2405546, 2018-03-11)"><metadata
   id="metadata43"><rdf:RDF><cc:Work
       rdf:about=""><dc:format>image/svg+xml</dc:format><dc:type
         rdf:resource="http://purl.org/dc/dcmitype/StillImage" /></cc:Work></rdf:RDF></metadata><defs
   id="defs41" /><sodipodi:namedview
   pagecolor="#ffffff"
   bordercolor="#666666"
   borderopacity="1"
   objecttolerance="10"
   gridtolerance="10"
   guidetolerance="10"
   inkscape:pageopacity="0"
   inkscape:pageshadow="2"
   inkscape:window-width="1366"
   inkscape:window-height="684"
   id="namedview39"
   showgrid="false"
   inkscape:zoom="0.64130435"
   inkscape:cx="184"
   inkscape:cy="184"
   inkscape:window-x="-8"
   inkscape:window-y="-8"
   inkscape:window-maximized="1"
   inkscape:current-layer="Capa_1" />
<g
   id="g6"
   style="fill:#ffffff">
	<g
   id="g4"
   style="fill:#ffffff">
		<path
   d="M312,64c-30.872,0-56,25.12-56,56c0,28.152,20.912,51.456,48,55.36V328c0,13.232-10.768,24-24,24H136    c-13.232,0-24-10.768-24-24v-40.408c53.608-4.112,96-48.944,96-103.592V40c0-4.416-3.576-8-8-8h-40V8c0-4.416-3.576-8-8-8    s-8,3.584-8,8v64c0,4.416,3.576,8,8,8s8-3.584,8-8V48h32v128h-40c-4.424,0-8,3.584-8,8c0,22.056-17.944,40-40,40    c-22.056,0-40-17.944-40-40c0-4.416-3.576-8-8-8H16V48h32v24c0,4.416,3.576,8,8,8s8-3.584,8-8V8c0-4.416-3.576-8-8-8s-8,3.584-8,8    v24H8c-4.424,0-8,3.584-8,8v144c0,54.648,42.392,99.48,96,103.592V328c0,22.056,17.944,40,40,40h144c22.056,0,40-17.944,40-40    V175.36c27.088-3.904,48-27.208,48-55.36C368,89.12,342.872,64,312,64z M104,272c-45.832,0-83.584-35.208-87.64-80h32.208    c3.888,27.104,27.264,48,55.432,48c28.168,0,51.536-20.896,55.432-48h32.208C187.584,236.792,149.832,272,104,272z M312,160    c-22.056,0-40-17.944-40-40c0-22.056,17.944-40,40-40c22.056,0,40,17.944,40,40C352,142.056,334.056,160,312,160z"
   id="path2"
   style="fill:#ffffff" />
	</g>
</g>
<g
   id="g8">
</g>
<g
   id="g10">
</g>
<g
   id="g12">
</g>
<g
   id="g14">
</g>
<g
   id="g16">
</g>
<g
   id="g18">
</g>
<g
   id="g20">
</g>
<g
   id="g22">
</g>
<g
   id="g24">
</g>
<g
   id="g26">
</g>
<g
   id="g28">
</g>
<g
   id="g30">
</g>
<g
   id="g32">
</g>
<g
   id="g34">
</g>
<g
   id="g36">
</g>
</svg>