<?xml version="1.0" encoding="UTF-8" standalone="no"?>
<!-- Generator: Adobe Illustrator 19.0.0, SVG Export Plug-In . SVG Version: 6.00 Build 0)  -->

<svg
   xmlns:dc="http://purl.org/dc/elements/1.1/"
   xmlns:cc="http://creativecommons.org/ns#"
   xmlns:rdf="http://www.w3.org/1999/02/22-rdf-syntax-ns#"
   xmlns:svg="http://www.w3.org/2000/svg"
   xmlns="http://www.w3.org/2000/svg"
   xmlns:sodipodi="http://sodipodi.sourceforge.net/DTD/sodipodi-0.dtd"
   xmlns:inkscape="http://www.inkscape.org/namespaces/inkscape"
   version="1.1"
   id="Capa_1"
   x="0px"
   y="0px"
   viewBox="0 0 480 480"
   style="enable-background:new 0 0 480 480;"
   xml:space="preserve"
   sodipodi:docname="maxspeed.svg"
   inkscape:version="0.92.3 (2405546, 2018-03-11)"
   inkscape:export-filename="F:\workbench\workspace_2018\AutoCenter\img\maxspeed.png"
   inkscape:export-xdpi="12.73"
   inkscape:export-ydpi="12.73"><metadata
   id="metadata181"><rdf:RDF><cc:Work
       rdf:about=""><dc:format>image/svg+xml</dc:format><dc:type
         rdf:resource="http://purl.org/dc/dcmitype/StillImage" /></cc:Work></rdf:RDF></metadata><defs
   id="defs179" /><sodipodi:namedview
   pagecolor="#ffffff"
   bordercolor="#666666"
   borderopacity="1"
   objecttolerance="10"
   gridtolerance="10"
   guidetolerance="10"
   inkscape:pageopacity="0"
   inkscape:pageshadow="2"
   inkscape:window-width="1366"
   inkscape:window-height="684"
   id="namedview177"
   showgrid="false"
   inkscape:zoom="0.49166667"
   inkscape:cx="-90.508473"
   inkscape:cy="240"
   inkscape:window-x="-8"
   inkscape:window-y="-8"
   inkscape:window-maximized="1"
   inkscape:current-layer="Capa_1" />
<g
   id="g6"
   style="fill:#f6a821;fill-opacity:1">
	<g
   id="g4"
   style="fill:#f6a821;fill-opacity:1">
		<path
   d="M240,0C107.452,0,0,107.452,0,240s107.452,240,240,240s240-107.452,240-240C479.85,107.514,372.486,0.15,240,0z M240,464    C116.288,464,16,363.712,16,240S116.288,16,240,16s224,100.288,224,224C463.859,363.653,363.653,463.859,240,464z"
   id="path2"
   style="fill:#f6a821;fill-opacity:1" />
	</g>
</g>
<g
   id="g12"
   style="fill:#f6a821;fill-opacity:1">
	<g
   id="g10"
   style="fill:#f6a821;fill-opacity:1">
		<path
   d="M240,32C125.125,32,32,125.125,32,240s93.125,208,208,208s208-93.125,208-208C447.872,125.178,354.822,32.128,240,32z     M240,432c-106.039,0-192-85.961-192-192S133.961,48,240,48s192,85.961,192,192C431.877,345.987,345.987,431.877,240,432z"
   id="path8"
   style="fill:#f6a821;fill-opacity:1" />
	</g>
</g>
<g
   id="g18"
   style="fill:#f6a821;fill-opacity:1">
	<g
   id="g16"
   style="fill:#f6a821;fill-opacity:1">
		<rect
   x="56"
   y="232"
   width="32"
   height="16"
   id="rect14"
   style="fill:#f6a821;fill-opacity:1" />
	</g>
</g>
<g
   id="g24"
   style="fill:#f6a821;fill-opacity:1">
	<g
   id="g22"
   style="fill:#f6a821;fill-opacity:1">
		<rect
   x="392"
   y="232"
   width="32"
   height="16"
   id="rect20"
   style="fill:#f6a821;fill-opacity:1" />
	</g>
</g>
<g
   id="g30"
   style="fill:#f6a821;fill-opacity:1">
	<g
   id="g28"
   style="fill:#f6a821;fill-opacity:1">
		<rect
   x="78.501"
   y="316.005"
   transform="matrix(0.8661 -0.4999 0.4999 0.8661 -149.3202 90.6366)"
   width="32"
   height="16"
   id="rect26"
   style="fill:#f6a821;fill-opacity:1" />
	</g>
</g>
<g
   id="g36"
   style="fill:#f6a821;fill-opacity:1">
	<g
   id="g34"
   style="fill:#f6a821;fill-opacity:1">
		<rect
   x="369.491"
   y="147.988"
   transform="matrix(0.8661 -0.4999 0.4999 0.8661 -26.3534 213.606)"
   width="32"
   height="16"
   id="rect32"
   style="fill:#f6a821;fill-opacity:1" />
	</g>
</g>
<g
   id="g42"
   style="fill:#f6a821;fill-opacity:1">
	<g
   id="g40"
   style="fill:#f6a821;fill-opacity:1">
		<rect
   x="86.503"
   y="140.002"
   transform="matrix(0.4999 -0.8661 0.8661 0.4999 -87.8498 159.8599)"
   width="16"
   height="32"
   id="rect38"
   style="fill:#f6a821;fill-opacity:1" />
	</g>
</g>
<g
   id="g48"
   style="fill:#f6a821;fill-opacity:1">
	<g
   id="g46"
   style="fill:#f6a821;fill-opacity:1">
		<rect
   x="377.504"
   y="307.98"
   transform="matrix(0.4999 -0.8661 0.8661 0.4999 -87.8083 495.888)"
   width="16"
   height="32"
   id="rect44"
   style="fill:#f6a821;fill-opacity:1" />
	</g>
</g>
<g
   id="g54"
   style="fill:#f6a821;fill-opacity:1">
	<g
   id="g52"
   style="fill:#f6a821;fill-opacity:1">
		<rect
   x="147.967"
   y="78.502"
   transform="matrix(0.8661 -0.4999 0.4999 0.8661 -26.355 90.6278)"
   width="16"
   height="32"
   id="rect50"
   style="fill:#f6a821;fill-opacity:1" />
	</g>
</g>
<g
   id="g60"
   style="fill:#f6a821;fill-opacity:1">
	<g
   id="g58"
   style="fill:#f6a821;fill-opacity:1">
		<rect
   x="232"
   y="56"
   width="16"
   height="32"
   id="rect56"
   style="fill:#f6a821;fill-opacity:1" />
	</g>
</g>
<g
   id="g66"
   style="fill:#f6a821;fill-opacity:1">
	<g
   id="g64"
   style="fill:#f6a821;fill-opacity:1">
		<rect
   x="307.997"
   y="86.507"
   transform="matrix(0.4999 -0.8661 0.8661 0.4999 80.1741 327.8656)"
   width="32"
   height="16"
   id="rect62"
   style="fill:#f6a821;fill-opacity:1" />
	</g>
</g>
<g
   id="g72"
   style="fill:#f6a821;fill-opacity:1">
	<g
   id="g70"
   style="fill:#f6a821;fill-opacity:1">
		<rect
   x="65.861"
   y="183.477"
   transform="matrix(0.2588 -0.9659 0.9659 0.2588 -134.0715 216.2285)"
   width="16"
   height="24"
   id="rect68"
   style="fill:#f6a821;fill-opacity:1" />
	</g>
</g>
<g
   id="g78"
   style="fill:#f6a821;fill-opacity:1">
	<g
   id="g76"
   style="fill:#f6a821;fill-opacity:1">
		<rect
   x="398.1"
   y="272.496"
   transform="matrix(0.2588 -0.9659 0.9659 0.2588 26.191 603.1256)"
   width="16"
   height="24"
   id="rect74"
   style="fill:#f6a821;fill-opacity:1" />
	</g>
</g>
<g
   id="g84"
   style="fill:#f6a821;fill-opacity:1">
	<g
   id="g82"
   style="fill:#f6a821;fill-opacity:1">
		<rect
   x="110.381"
   y="106.376"
   transform="matrix(0.7071 -0.7071 0.7071 0.7071 -49.0314 118.3792)"
   width="16"
   height="24"
   id="rect80"
   style="fill:#f6a821;fill-opacity:1" />
	</g>
</g>
<g
   id="g90"
   style="fill:#f6a821;fill-opacity:1">
	<g
   id="g88"
   style="fill:#f6a821;fill-opacity:1">
		<rect
   x="187.453"
   y="61.867"
   transform="matrix(0.9659 -0.2588 0.2588 0.9659 -12.4583 53.1039)"
   width="16"
   height="24"
   id="rect86"
   style="fill:#f6a821;fill-opacity:1" />
	</g>
</g>
<g
   id="g96"
   style="fill:#f6a821;fill-opacity:1">
	<g
   id="g94"
   style="fill:#f6a821;fill-opacity:1">
		<rect
   x="272.509"
   y="65.904"
   transform="matrix(0.2588 -0.9659 0.9659 0.2588 139.4867 329.5905)"
   width="24"
   height="16"
   id="rect92"
   style="fill:#f6a821;fill-opacity:1" />
	</g>
</g>
<g
   id="g102"
   style="fill:#f6a821;fill-opacity:1">
	<g
   id="g100"
   style="fill:#f6a821;fill-opacity:1">
		<rect
   x="349.624"
   y="110.397"
   transform="matrix(0.7071 -0.7071 0.7071 0.7071 22.1981 290.3847)"
   width="24"
   height="16"
   id="rect98"
   style="fill:#f6a821;fill-opacity:1" />
	</g>
</g>
<g
   id="g108"
   style="fill:#f6a821;fill-opacity:1">
	<g
   id="g106"
   style="fill:#f6a821;fill-opacity:1">
		<rect
   x="394.192"
   y="187.475"
   transform="matrix(0.9659 -0.2588 0.2588 0.9659 -36.7521 111.7907)"
   width="24"
   height="16"
   id="rect104"
   style="fill:#f6a821;fill-opacity:1" />
	</g>
</g>
<g
   id="g114"
   style="fill:#f6a821;fill-opacity:1">
	<g
   id="g112"
   style="fill:#f6a821;fill-opacity:1">
		<rect
   x="61.863"
   y="276.519"
   transform="matrix(0.9659 -0.2588 0.2588 0.9659 -71.1225 28.8121)"
   width="24"
   height="16"
   id="rect110"
   style="fill:#f6a821;fill-opacity:1" />
	</g>
</g>
<g
   id="g120"
   style="fill:#f6a821;fill-opacity:1">
	<g
   id="g118"
   style="fill:#f6a821;fill-opacity:1">
		<path
   d="M273.943,108.367c-72.737-18.735-146.889,25.041-165.625,97.777c-8.876,34.46-3.893,71.027,13.882,101.855    c2.324,3.757,7.255,4.919,11.012,2.594c3.598-2.226,4.841-6.869,2.836-10.594c-33.098-57.418-13.382-130.795,44.036-163.893    c57.418-33.098,130.795-13.382,163.893,44.036c15.681,27.203,20.075,59.468,12.24,89.873c-1.105,4.281,1.471,8.647,5.752,9.752    c4.281,1.105,8.647-1.471,9.752-5.752v-0.024C390.456,201.255,346.679,127.103,273.943,108.367z"
   id="path116"
   style="fill:#f6a821;fill-opacity:1" />
	</g>
</g>
<g
   id="g126"
   style="fill:#f6a821;fill-opacity:1">
	<g
   id="g124"
   style="fill:#f6a821;fill-opacity:1">
		<path
   d="M357.064,297.808l-88-72c-0.24-0.147-0.489-0.281-0.744-0.4c-8.031-15.689-27.259-21.897-42.947-13.866    c-15.689,8.031-21.897,27.259-13.866,42.947c5.159,10.078,15.271,16.668,26.573,17.319l111.2,39.72    c0.872,0.316,1.793,0.476,2.72,0.472c4.418-0.001,7.999-3.583,7.999-8.002C359.998,301.599,358.921,299.327,357.064,297.808z     M240,256c-8.837,0-16-7.163-16-16s7.163-16,16-16s16,7.163,16,16S248.837,256,240,256z M261.8,263.296    c4.423-4.143,7.571-9.464,9.072-15.336l40.328,32.952L261.8,263.296z"
   id="path122"
   style="fill:#f6a821;fill-opacity:1" />
	</g>
</g>
<g
   id="g132"
   style="fill:#f6a821;fill-opacity:1">
	<g
   id="g130"
   style="fill:#f6a821;fill-opacity:1">
		<path
   d="M272,320h-64c-22.091,0-40,17.909-40,40c0,22.091,17.909,40,40,40h64c22.091,0,40-17.909,40-40    C312,337.909,294.091,320,272,320z M272,384h-64c-13.255,0-24-10.745-24-24s10.745-24,24-24h64c13.255,0,24,10.745,24,24    S285.255,384,272,384z"
   id="path128"
   style="fill:#f6a821;fill-opacity:1" />
	</g>
</g>
<g
   id="g138"
   style="fill:#f6a821;fill-opacity:1">
	<g
   id="g136"
   style="fill:#f6a821;fill-opacity:1">
		<path
   d="M224,352h-16c-4.418,0-8,3.582-8,8s3.582,8,8,8h16c4.418,0,8-3.582,8-8S228.418,352,224,352z"
   id="path134"
   style="fill:#f6a821;fill-opacity:1" />
	</g>
</g>
<g
   id="g144"
   style="fill:#f6a821;fill-opacity:1">
	<g
   id="g142"
   style="fill:#f6a821;fill-opacity:1">
		<path
   d="M272,352h-16c-4.418,0-8,3.582-8,8s3.582,8,8,8h16c4.418,0,8-3.582,8-8S276.418,352,272,352z"
   id="path140"
   style="fill:#f6a821;fill-opacity:1" />
	</g>
</g>
<g
   id="g146">
</g>
<g
   id="g148">
</g>
<g
   id="g150">
</g>
<g
   id="g152">
</g>
<g
   id="g154">
</g>
<g
   id="g156">
</g>
<g
   id="g158">
</g>
<g
   id="g160">
</g>
<g
   id="g162">
</g>
<g
   id="g164">
</g>
<g
   id="g166">
</g>
<g
   id="g168">
</g>
<g
   id="g170">
</g>
<g
   id="g172">
</g>
<g
   id="g174">
</g>
</svg>