<?xml version="1.0" encoding="UTF-8" standalone="no"?>
<!-- Generator: Adobe Illustrator 19.0.0, SVG Export Plug-In . SVG Version: 6.00 Build 0)  -->

<svg
   xmlns:dc="http://purl.org/dc/elements/1.1/"
   xmlns:cc="http://creativecommons.org/ns#"
   xmlns:rdf="http://www.w3.org/1999/02/22-rdf-syntax-ns#"
   xmlns:svg="http://www.w3.org/2000/svg"
   xmlns="http://www.w3.org/2000/svg"
   xmlns:sodipodi="http://sodipodi.sourceforge.net/DTD/sodipodi-0.dtd"
   xmlns:inkscape="http://www.inkscape.org/namespaces/inkscape"
   version="1.1"
   id="Capa_1"
   x="0px"
   y="0px"
   viewBox="0 0 496 496"
   style="enable-background:new 0 0 496 496;"
   xml:space="preserve"
   sodipodi:docname="oil.svg"
   inkscape:version="0.92.3 (2405546, 2018-03-11)"
   inkscape:export-filename="F:\workbench\workspace_2018\AutoCenter\img\oil.png"
   inkscape:export-xdpi="12.387096"
   inkscape:export-ydpi="12.387096"><metadata
   id="metadata47"><rdf:RDF><cc:Work
       rdf:about=""><dc:format>image/svg+xml</dc:format><dc:type
         rdf:resource="http://purl.org/dc/dcmitype/StillImage" /></cc:Work></rdf:RDF></metadata><defs
   id="defs45" /><sodipodi:namedview
   pagecolor="#ffffff"
   bordercolor="#666666"
   borderopacity="1"
   objecttolerance="10"
   gridtolerance="10"
   guidetolerance="10"
   inkscape:pageopacity="0"
   inkscape:pageshadow="2"
   inkscape:window-width="1366"
   inkscape:window-height="684"
   id="namedview43"
   showgrid="false"
   inkscape:zoom="0.47580645"
   inkscape:cx="248"
   inkscape:cy="248"
   inkscape:window-x="-8"
   inkscape:window-y="-8"
   inkscape:window-maximized="1"
   inkscape:current-layer="Capa_1" />
<g
   id="g10"
   style="fill:#f6a821;fill-opacity:1">
	<g
   id="g8"
   style="fill:#f6a821;fill-opacity:1">
		<g
   id="g6"
   style="fill:#f6a821;fill-opacity:1">
			<path
   d="M399.999,0h-200c-26.499,0.026-47.974,21.501-48,48v32h-20.688l-29.656-29.656c-3.124-3.123-8.188-3.123-11.312,0l-64,64     c-3.123,3.124-3.123,8.188,0,11.312l29.656,29.656V424c0.044,39.746,32.254,71.956,72,72h272c39.746-0.044,71.956-32.254,72-72     V72C471.955,32.254,439.745,0.044,399.999,0z M167.999,48c0-17.673,14.327-32,32-32h164.688l-16,16H207.999     c-13.255,0-24,10.745-24,24v24h-16V48z M332.687,48l-24.968,24.968c-4.492,4.518-10.605,7.05-16.976,7.032h-90.744V56     c0-4.418,3.582-8,8-8H332.687z M43.311,120l52.688-52.688L116.687,88l-52.688,52.688L43.311,120z M455.999,424     c-0.04,30.911-25.089,55.96-56,56h-272c-30.911-0.04-55.96-25.089-56-56V155.312L131.311,96h159.432     c10.616,0.027,20.802-4.193,28.288-11.72L387.311,16h12.688c30.911,0.04,55.96,25.089,56,56V424z"
   id="path2"
   style="fill:#f6a821;fill-opacity:1" />
			<path
   d="M405.655,157.656l-11.312-11.312L332.687,208H195.311l-61.656-61.656l-11.312,11.312l61.656,61.656v137.376     l-61.656,61.656l11.312,11.312L195.311,368h137.376l61.656,61.656l11.312-11.312l-61.656-61.656V219.312L405.655,157.656z      M327.999,352h-128V224h128V352z"
   id="path4"
   style="fill:#f6a821;fill-opacity:1" />
		</g>
	</g>
</g>
<g
   id="g12">
</g>
<g
   id="g14">
</g>
<g
   id="g16">
</g>
<g
   id="g18">
</g>
<g
   id="g20">
</g>
<g
   id="g22">
</g>
<g
   id="g24">
</g>
<g
   id="g26">
</g>
<g
   id="g28">
</g>
<g
   id="g30">
</g>
<g
   id="g32">
</g>
<g
   id="g34">
</g>
<g
   id="g36">
</g>
<g
   id="g38">
</g>
<g
   id="g40">
</g>
</svg>