<?xml version="1.0" encoding="UTF-8" standalone="no"?>
<!-- Generator: Adobe Illustrator 19.0.0, SVG Export Plug-In . SVG Version: 6.00 Build 0)  -->

<svg
   xmlns:dc="http://purl.org/dc/elements/1.1/"
   xmlns:cc="http://creativecommons.org/ns#"
   xmlns:rdf="http://www.w3.org/1999/02/22-rdf-syntax-ns#"
   xmlns:svg="http://www.w3.org/2000/svg"
   xmlns="http://www.w3.org/2000/svg"
   xmlns:sodipodi="http://sodipodi.sourceforge.net/DTD/sodipodi-0.dtd"
   xmlns:inkscape="http://www.inkscape.org/namespaces/inkscape"
   version="1.1"
   id="Layer_1"
   x="0px"
   y="0px"
   viewBox="0 0 512 512"
   style="enable-background:new 0 0 512 512;"
   xml:space="preserve"
   sodipodi:docname="oil.svg"
   inkscape:version="0.92.3 (2405546, 2018-03-11)"
   inkscape:export-filename="F:\workbench\workspace_2018\AutoCenter\svg\oils.png"
   inkscape:export-xdpi="12"
   inkscape:export-ydpi="12"><metadata
   id="metadata59"><rdf:RDF><cc:Work
       rdf:about=""><dc:format>image/svg+xml</dc:format><dc:type
         rdf:resource="http://purl.org/dc/dcmitype/StillImage" /></cc:Work></rdf:RDF></metadata><defs
   id="defs57" /><sodipodi:namedview
   pagecolor="#ffffff"
   bordercolor="#666666"
   borderopacity="1"
   objecttolerance="10"
   gridtolerance="10"
   guidetolerance="10"
   inkscape:pageopacity="0"
   inkscape:pageshadow="2"
   inkscape:window-width="1366"
   inkscape:window-height="684"
   id="namedview55"
   showgrid="false"
   inkscape:zoom="0.4609375"
   inkscape:cx="256"
   inkscape:cy="256"
   inkscape:window-x="-8"
   inkscape:window-y="-8"
   inkscape:window-maximized="1"
   inkscape:current-layer="Layer_1" />
<g
   transform="translate(1 1)"
   id="g22"
   style="fill:#f6a821;fill-opacity:1"
   inkscape:export-filename="F:\workbench\workspace_2018\AutoCenter\img\oil.png"
   inkscape:export-xdpi="12.83"
   inkscape:export-ydpi="12.83">
	<g
   id="g20"
   style="fill:#f6a821;fill-opacity:1">
		<g
   id="g18"
   style="fill:#f6a821;fill-opacity:1">
			<path
   d="M155.16,220.013c-4.267-5.12-11.093-7.68-17.92-7.68H84.333c-14.507,0-25.6,11.093-25.6,25.6v179.2     c0,14.507,11.093,25.6,25.6,25.6h85.333c14.507,0,25.6-11.093,25.6-25.6V270.36c0-6.827-2.56-12.8-7.68-17.92L155.16,220.013z      M178.2,417.133c0,5.12-3.413,8.533-8.533,8.533H84.333c-5.12,0-8.533-3.413-8.533-8.533v-179.2c0-5.12,3.413-8.533,8.533-8.533     h52.907c2.56,0,4.267,0.853,5.973,2.56l32.427,32.427c1.707,1.707,2.56,3.413,2.56,5.973V417.133z"
   id="path2"
   style="fill:#f6a821;fill-opacity:1" />
			<path
   d="M329.24,288.28c4.267,0.853,7.68,0.853,11.093,0.853c11.947,0,23.04-4.267,31.573-11.947     c11.947-10.24,18.773-24.747,18.773-40.107c0-7.68-2.56-15.36-6.827-22.187l-4.267-6.827     c-5.973-9.387-11.947-18.773-17.067-29.013l-15.36-30.72c-1.707-3.413-4.267-5.12-7.68-5.12s-5.973,2.56-7.68,5.12     l-11.947,24.747c-5.973,12.8-12.8,26.453-22.187,38.4c-5.12,6.827-7.68,14.507-8.533,23.04     C287.427,260.12,304.493,283.16,329.24,288.28z M307.053,236.227c0-5.12,1.707-9.387,5.12-13.653     c9.387-13.653,17.067-28.16,23.893-41.813l4.267-9.387l7.68,15.36c5.12,11.093,11.947,20.48,17.92,30.72l5.12,7.68     c3.413,4.267,4.267,8.533,4.267,13.653c0,10.24-5.12,19.627-12.8,26.453c-8.533,6.827-18.773,9.387-29.013,6.827     C317.293,268.653,306.2,253.293,307.053,236.227z"
   id="path4"
   style="fill:#f6a821;fill-opacity:1" />
			<path
   d="M135.533,280.6h-25.6c-5.12,0-8.533,3.413-8.533,8.533s3.413,8.533,8.533,8.533h25.6c5.12,0,8.533-3.413,8.533-8.533     S140.653,280.6,135.533,280.6z"
   id="path6"
   style="fill:#f6a821;fill-opacity:1" />
			<path
   d="M135.533,323.267h-25.6c-5.12,0-8.533,3.413-8.533,8.533c0,5.12,3.413,8.533,8.533,8.533h25.6     c5.12,0,8.533-3.413,8.533-8.533C144.067,326.68,140.653,323.267,135.533,323.267z"
   id="path8"
   style="fill:#f6a821;fill-opacity:1" />
			<path
   d="M135.533,365.933h-25.6c-5.12,0-8.533,3.413-8.533,8.533s3.413,8.533,8.533,8.533h25.6c5.12,0,8.533-3.413,8.533-8.533     S140.653,365.933,135.533,365.933z"
   id="path10"
   style="fill:#f6a821;fill-opacity:1" />
			<path
   d="M498.2,128.707L432.493,63c-7.68-8.533-18.773-12.8-29.867-12.8h-104.96V24.6c0-14.507-11.093-25.6-25.6-25.6h-34.133     c-14.507,0-25.6,11.093-25.6,25.6v25.6c-23.893,0-42.667,18.773-42.667,42.667v53.74c-4.636-1.69-9.57-2.54-14.507-2.54H84.333     v-25.6c0-14.507-11.093-25.6-25.6-25.6H41.667c-14.507,0-25.6,11.093-25.6,25.6v27.307C5.827,149.187-1,158.573-1,169.667V485.4     c0,14.507,11.093,25.6,25.6,25.6h204.8h238.933C492.227,511,511,492.227,511,468.333v-309.76     C511,147.48,505.88,136.387,498.2,128.707z M237.933,205.507V127c0-5.12,3.413-8.533,8.533-8.533h135.68     c6.827,0,12.8,2.56,17.92,7.68l34.987,34.987c5.12,4.267,7.68,11.093,7.68,17.92V434.2c0,5.12-3.413,8.533-8.533,8.533H263.533     c-5.12,0-8.533-3.413-8.533-8.533V243.907v-0.853v-6.827c0-6.827-2.56-12.8-7.68-17.92l-5.12-5.12l-1.707-1.707     C238.787,209.773,237.933,208.067,237.933,205.507z M16.067,485.4V169.667c0-5.12,3.413-8.533,8.533-8.533     s8.533-3.413,8.533-8.533v-34.133c0-5.12,3.413-8.533,8.533-8.533h17.067c5.12,0,8.533,3.413,8.533,8.533V152.6     c0,5.12,3.413,8.533,8.533,8.533h79.36c6.827,0,12.8,2.56,17.92,7.68l57.173,57.173c5.12,4.267,7.68,11.093,7.68,17.92V434.2     v51.2c0,5.12-3.413,8.533-8.533,8.533H24.6C19.48,493.933,16.067,490.52,16.067,485.4z M493.933,468.333     c0,14.507-11.093,25.6-25.6,25.6H253.624c0.89-2.652,1.376-5.517,1.376-8.533v-26.976c2.652,0.89,5.517,1.376,8.533,1.376H434.2     c14.507,0,25.6-11.093,25.6-25.6V179.053c0-11.093-5.12-22.187-12.8-29.867L412.013,114.2c-7.68-8.533-18.773-12.8-29.867-12.8     h-135.68c-14.507,0-25.6,11.093-25.6,25.6v64.853l-34.133-34.133V92.867c0-14.507,11.093-25.6,25.6-25.6h8.533     c5.12,0,8.533-3.413,8.533-8.533V24.6c0-5.12,3.413-8.533,8.533-8.533h34.133c5.12,0,8.533,3.413,8.533,8.533v34.133     c0,5.12,3.413,8.533,8.533,8.533h113.493c6.827,0,13.653,2.56,17.92,7.68l65.707,65.707c5.12,4.267,7.68,11.093,7.68,17.92     V468.333z"
   id="path12"
   style="fill:#f6a821;fill-opacity:1" />
			<path
   d="M383,323.267h-85.333c-5.12,0-8.533,3.413-8.533,8.533c0,5.12,3.413,8.533,8.533,8.533H383     c5.12,0,8.533-3.413,8.533-8.533C391.533,326.68,388.12,323.267,383,323.267z"
   id="path14"
   style="fill:#f6a821;fill-opacity:1" />
			<path
   d="M280.6,383h119.467c5.12,0,8.533-3.413,8.533-8.533s-3.413-8.533-8.533-8.533H280.6c-5.12,0-8.533,3.413-8.533,8.533     S275.48,383,280.6,383z"
   id="path16"
   style="fill:#f6a821;fill-opacity:1" />
		</g>
	</g>
</g>
<g
   id="g24">
</g>
<g
   id="g26">
</g>
<g
   id="g28">
</g>
<g
   id="g30">
</g>
<g
   id="g32">
</g>
<g
   id="g34">
</g>
<g
   id="g36">
</g>
<g
   id="g38">
</g>
<g
   id="g40">
</g>
<g
   id="g42">
</g>
<g
   id="g44">
</g>
<g
   id="g46">
</g>
<g
   id="g48">
</g>
<g
   id="g50">
</g>
<g
   id="g52">
</g>
</svg>