<?xml version="1.0" encoding="UTF-8" standalone="no"?>
<!-- Generator: Adobe Illustrator 16.0.0, SVG Export Plug-In . SVG Version: 6.00 Build 0)  -->

<svg
   xmlns:dc="http://purl.org/dc/elements/1.1/"
   xmlns:cc="http://creativecommons.org/ns#"
   xmlns:rdf="http://www.w3.org/1999/02/22-rdf-syntax-ns#"
   xmlns:svg="http://www.w3.org/2000/svg"
   xmlns="http://www.w3.org/2000/svg"
   xmlns:sodipodi="http://sodipodi.sourceforge.net/DTD/sodipodi-0.dtd"
   xmlns:inkscape="http://www.inkscape.org/namespaces/inkscape"
   version="1.1"
   id="Capa_1"
   x="0px"
   y="0px"
   width="408.174px"
   height="408.174px"
   viewBox="0 0 408.174 408.174"
   style="enable-background:new 0 0 408.174 408.174;"
   xml:space="preserve"
   sodipodi:docname="open-cardboard-box.svg"
   inkscape:version="0.92.3 (2405546, 2018-03-11)"><metadata
   id="metadata45"><rdf:RDF><cc:Work
       rdf:about=""><dc:format>image/svg+xml</dc:format><dc:type
         rdf:resource="http://purl.org/dc/dcmitype/StillImage" /><dc:title></dc:title></cc:Work></rdf:RDF></metadata><defs
   id="defs43" /><sodipodi:namedview
   pagecolor="#000000"
   bordercolor="#666666"
   borderopacity="1"
   objecttolerance="10"
   gridtolerance="10"
   guidetolerance="10"
   inkscape:pageopacity="0"
   inkscape:pageshadow="2"
   inkscape:window-width="1366"
   inkscape:window-height="684"
   id="namedview41"
   showgrid="false"
   inkscape:zoom="0.57818478"
   inkscape:cx="204.08701"
   inkscape:cy="204.08701"
   inkscape:window-x="-8"
   inkscape:window-y="-8"
   inkscape:window-maximized="1"
   inkscape:current-layer="Capa_1" />
<g
   id="g8"
   style="fill:#ffffff"
   inkscape:export-filename="F:\workbench\workspace_2018\AutoCenter\img\open-box.png"
   inkscape:export-xdpi="23.519377"
   inkscape:export-ydpi="23.519377">
	<g
   id="g6"
   style="fill:#ffffff">
		<path
   d="M266.524,233.27H4c-2.209,0-4,1.791-4,4v159.365c0,2.209,1.791,4,4,4h262.522c2.209,0,4-1.791,4-4V237.27    C270.524,235.061,268.733,233.27,266.524,233.27z"
   id="path2"
   style="fill:#ffffff" />
		<path
   d="M407.445,9.234c-0.75-1.063-1.97-1.695-3.271-1.695h-291c-1.658,0-3.145,1.021-3.736,2.57L69.712,113.9l-65.59,98.807    c-0.814,1.227-0.889,2.803-0.191,4.102c0.698,1.299,2.051,2.109,3.525,2.109H73.29c2.209,0,4-1.791,4-4v-95.176l282.666-0.033    l-73.057,110.658c-0.403,0.639-0.618,1.381-0.62,2.137l-0.066,148.012c-0.002,1.769,1.158,3.326,2.854,3.834    c0.379,0.113,0.764,0.168,1.146,0.168c1.322,0,2.59-0.657,3.344-1.805l76.611-113.572c0.428-0.652,0.656-1.416,0.656-2.197    V116.725l37.116-103.84C408.379,11.66,408.193,10.299,407.445,9.234z"
   id="path4"
   style="fill:#ffffff" />
	</g>
</g>
<g
   id="g10">
</g>
<g
   id="g12">
</g>
<g
   id="g14">
</g>
<g
   id="g16">
</g>
<g
   id="g18">
</g>
<g
   id="g20">
</g>
<g
   id="g22">
</g>
<g
   id="g24">
</g>
<g
   id="g26">
</g>
<g
   id="g28">
</g>
<g
   id="g30">
</g>
<g
   id="g32">
</g>
<g
   id="g34">
</g>
<g
   id="g36">
</g>
<g
   id="g38">
</g>
</svg>