<?xml version="1.0" encoding="UTF-8" standalone="no"?>
<svg
   xmlns:dc="http://purl.org/dc/elements/1.1/"
   xmlns:cc="http://creativecommons.org/ns#"
   xmlns:rdf="http://www.w3.org/1999/02/22-rdf-syntax-ns#"
   xmlns:svg="http://www.w3.org/2000/svg"
   xmlns="http://www.w3.org/2000/svg"
   xmlns:sodipodi="http://sodipodi.sourceforge.net/DTD/sodipodi-0.dtd"
   xmlns:inkscape="http://www.inkscape.org/namespaces/inkscape"
   height="512pt"
   viewBox="0 -3 512.00018 512"
   width="512pt"
   version="1.1"
   id="svg10"
   sodipodi:docname="path2.svg"
   inkscape:version="0.92.3 (2405546, 2018-03-11)"
   inkscape:export-filename="F:\workbench\workspace_2018\AutoCenter\img\path2.png"
   inkscape:export-xdpi="9"
   inkscape:export-ydpi="9">
  <metadata
     id="metadata16">
    <rdf:RDF>
      <cc:Work
         rdf:about="">
        <dc:format>image/svg+xml</dc:format>
        <dc:type
           rdf:resource="http://purl.org/dc/dcmitype/StillImage" />
      </cc:Work>
    </rdf:RDF>
  </metadata>
  <defs
     id="defs14" />
  <sodipodi:namedview
     pagecolor="#ffffff"
     bordercolor="#666666"
     borderopacity="1"
     objecttolerance="10"
     gridtolerance="10"
     guidetolerance="10"
     inkscape:pageopacity="0"
     inkscape:pageshadow="2"
     inkscape:window-width="1366"
     inkscape:window-height="684"
     id="namedview12"
     showgrid="false"
     inkscape:zoom="0.34570313"
     inkscape:cx="341.33333"
     inkscape:cy="341.33333"
     inkscape:window-x="-8"
     inkscape:window-y="-8"
     inkscape:window-maximized="1"
     inkscape:current-layer="svg10" />
  <path
     d="m324.640625 431.796875c-2.628906 0-5.199219-1.070313-7.070313-2.933594-.460937-.460937-.878906-.976562-1.238281-1.519531-.363281-.550781-.671875-1.128906-.921875-1.730469-.25-.597656-.441406-1.226562-.570312-1.867187-.128906-.652344-.199219-1.300782-.199219-1.949219 0-.660156.070313-1.3125.199219-1.960937.128906-.640626.320312-1.273438.570312-1.871094.25-.601563.558594-1.179688.921875-1.730469.359375-.539063.777344-1.058594 1.238281-1.519531.460938-.460938.96875-.871094 1.519532-1.238282.539062-.363281 1.121094-.671874 1.730468-.921874.601563-.25 1.230469-.441407 1.871094-.570313 1.289063-.257813 2.617188-.257813 3.910156 0 .636719.128906 1.269532.320313 1.867188.570313.601562.25 1.179688.558593 1.730469.921874.539062.367188 1.050781.777344 1.519531 1.238282.460938.460937.871094.980468 1.242188 1.519531.359374.550781.667968 1.128906.917968 1.730469.25.601562.441406 1.230468.570313 1.871094.132812.648437.191406 1.300781.191406 1.960937 0 .648437-.058594 1.296875-.191406 1.949219-.128907.640625-.320313 1.269531-.570313 1.867187-.25.601563-.558594 1.183594-.917968 1.730469-.371094.539062-.78125 1.058594-1.242188 1.519531-1.867188 1.859375-4.4375 2.933594-7.078125 2.933594zm0 0"
     id="path2"
     style="fill:#f6a821;fill-opacity:1" />
  <path
     d="m400.265625 244.242188c-2.433594 0-4.871094-.886719-6.789063-2.660157l-66.96875-61.929687c-.09375-.085938-.1875-.175782-.277343-.269532-19.9375-19.921874-30.914063-46.289062-30.914063-74.242187s10.976563-54.320313 30.914063-74.246094c19.570312-19.8125 45.78125-30.8046872 73.757812-30.894531h.347657c28.082031 0 54.507812 10.964844 74.449218 30.894531.015625.015625.03125.03125.046875.046875 40.671875 41.179688 40.433594 107.984375-.523437 148.921875-.101563.101563-.203125.195313-.308594.292969l-66.972656 61.453125c-1.914063 1.753906-4.335938 2.632813-6.761719 2.632813zm-60.03125-79.136719 60.058594 55.539062 60.019531-55.074219c33.054688-33.191406 33.207031-87.222656.3125-120.550781-16.164062-16.140625-37.5625-25.019531-60.289062-25.019531-.097657 0-.1875.003906-.285157.003906-22.609375.070313-43.789062 8.945313-59.636719 24.992188-16.203124 16.191406-25.097656 37.535156-25.097656 60.144531-.003906 22.546875 8.847656 43.832031 24.917969 59.964844zm0 0"
     id="path4"
     style="fill:#f6a821;fill-opacity:1" />
  <path
     d="m401.183594 254.855469h-166.382813c-19.578125 0-35.503906-15.914063-35.503906-35.476563 0-19.566406 15.925781-35.480468 35.503906-35.480468h96.296875l62.378906 57.6875c1.917969 1.769531 4.351563 2.65625 6.789063 2.65625 2.425781 0 4.847656-.878907 6.761719-2.632813l66.96875-61.453125c.105468-.09375.207031-.191406.308594-.292969 40.960937-40.9375 41.195312-107.742187.523437-148.921875-.015625-.015625-.027344-.027344-.042969-.042968-19.945312-19.933594-46.371094-30.898438-74.449218-30.898438-.117188 0-.234376.00390625-.351563.00390625-27.972656.08984375-54.183594 11.07812475-73.757813 30.89453175-19.933593 19.921874-30.914062 46.289062-30.914062 74.242187 0 4.777344.320312 9.511719.953125 14.171875h-61.464844c-55.203125 0-100.113281 44.890625-100.113281 100.066406 0 55.171875 44.910156 100.0625 100.113281 100.0625h166.382813c25.480468 0 46.207031 20.714844 46.207031 46.175782 0 25.457031-20.726563 46.171874-46.207031 46.171874h-26.5625c-5.523438 0-10 4.476563-10 10 0 5.523438 4.476562 10 10 10h26.5625c36.507812 0 66.207031-29.683593 66.207031-66.171874 0-36.488282-29.699219-66.175782-66.207031-66.175782h-166.382813c-44.171875 0-80.113281-35.917968-80.113281-80.0625 0-44.148437 35.9375-80.066406 80.113281-80.066406h66.226563c2.996094 8.667969 7.140625 16.925781 12.359375 24.585938h-78.585938c-30.605469 0-55.503906 24.886718-55.503906 55.480468 0 30.589844 24.898437 55.476563 55.503906 55.476563h166.382813c50.078125 0 90.816406 40.714843 90.816406 90.757812 0 50.046875-40.738281 90.761719-90.816406 90.761719h-214.707032v-24.585938h94.113282c5.519531 0 10-4.476562 10-10 0-5.523437-4.480469-10-10-10h-94.113282v-22.851562l7.6875 5.910156c1.816407 1.398438 3.960938 2.074219 6.089844 2.074219 3 0 5.964844-1.34375 7.933594-3.90625 3.367188-4.378906 2.546875-10.65625-1.832031-14.023437l-19.882813-15.285157v-28.433593c0-5.523438-4.476562-10-10-10-5.519531 0-10 4.476562-10 10v13.058593l-46.101562-35.449219-9.144532-7.03125c-.730468-.5625-1.519531-1.011718-2.34375-1.34375-.0625-.027343-.125-.050781-.1875-.074218-1.148437-.4375-2.355468-.65625-3.566406-.65625-2.148437 0-4.296875.691406-6.09375 2.074218l-8.105468 6.230469-87.023438 66.910157c-4.378906 3.367187-5.199219 9.644531-1.832031 14.023437 3.367187 4.378906 9.644531 5.199219 14.023437 1.832031l7.691406-5.914062v96.074218h-7.191406c-5.523437 0-10 4.476563-10 10 0 5.523438 4.476563 10 10 10h177.066406c5.523438 0 10-4.476562 10-10 0-5.523437-4.476562-10-10-10h-7.1875v-8.632812h214.707032c61.105468 0 110.816406-49.6875 110.816406-110.761719 0-61.070312-49.710938-110.757812-110.816406-110.757812zm-60.769532-209.859375c15.847657-16.046875 37.027344-24.921875 59.636719-24.992188.09375 0 .1875-.003906.28125-.003906 22.726563 0 44.128907 8.878906 60.289063 25.019531 32.894531 33.328125 32.746094 87.359375-.308594 120.550781l-60.019531 55.074219-60.058594-55.539062c-16.074219-16.132813-24.921875-37.417969-24.921875-59.964844 0-22.609375 8.898438-43.953125 25.101562-60.144531zm-249.152343 440.011718v-39.3125h27.738281v39.3125zm47.738281 0v-49.3125c0-5.523437-4.476562-10-10-10h-47.738281c-5.523438 0-10 4.476563-10 10v49.3125h-27.472657v-111.449218l61.34375-47.167969 61.34375 47.167969v111.449218zm0 0"
     id="path6"
     style="fill:#f6a821;fill-opacity:1" />
  <path
     d="m400.296875 171.003906c-36.011719 0-65.308594-29.285156-65.308594-65.28125 0-35.992187 29.296875-65.277344 65.308594-65.277344s65.308594 29.285157 65.308594 65.277344c0 35.996094-29.296875 65.28125-65.308594 65.28125zm0-110.558594c-24.984375 0-45.308594 20.3125-45.308594 45.277344 0 24.96875 20.324219 45.28125 45.308594 45.28125s45.308594-20.316406 45.308594-45.28125-20.324219-45.277344-45.308594-45.277344zm0 0"
     id="path8"
     style="fill:#f6a821;fill-opacity:1" />
</svg>
