<?xml version="1.0" encoding="UTF-8" standalone="no"?>
<!-- Generator: Adobe Illustrator 16.0.0, SVG Export Plug-In . SVG Version: 6.00 Build 0)  -->

<svg
   xmlns:dc="http://purl.org/dc/elements/1.1/"
   xmlns:cc="http://creativecommons.org/ns#"
   xmlns:rdf="http://www.w3.org/1999/02/22-rdf-syntax-ns#"
   xmlns:svg="http://www.w3.org/2000/svg"
   xmlns="http://www.w3.org/2000/svg"
   xmlns:sodipodi="http://sodipodi.sourceforge.net/DTD/sodipodi-0.dtd"
   xmlns:inkscape="http://www.inkscape.org/namespaces/inkscape"
   version="1.1"
   id="Capa_1"
   x="0px"
   y="0px"
   width="356.91901"
   height="355.918"
   viewBox="0 0 356.919 355.918"
   xml:space="preserve"
   sodipodi:docname="pause-sign.svg"
   inkscape:version="0.92.3 (2405546, 2018-03-11)"
   inkscape:export-filename="F:\workbench\workspace_2018\AutoCenter\img\pause-button.png"
   inkscape:export-xdpi="80.917519"
   inkscape:export-ydpi="80.917519"><metadata
   id="metadata42"><rdf:RDF><cc:Work
       rdf:about=""><dc:format>image/svg+xml</dc:format><dc:type
         rdf:resource="http://purl.org/dc/dcmitype/StillImage" /><dc:title></dc:title></cc:Work></rdf:RDF></metadata><defs
   id="defs40" /><sodipodi:namedview
   pagecolor="#000000"
   bordercolor="#666666"
   borderopacity="1"
   objecttolerance="10"
   gridtolerance="10"
   guidetolerance="10"
   inkscape:pageopacity="0"
   inkscape:pageshadow="2"
   inkscape:window-width="1366"
   inkscape:window-height="684"
   id="namedview38"
   showgrid="false"
   scale-x="0.9"
   inkscape:zoom="0.6612163"
   inkscape:cx="178.4595"
   inkscape:cy="178.459"
   inkscape:window-x="-8"
   inkscape:window-y="-8"
   inkscape:window-maximized="1"
   inkscape:current-layer="Capa_1" />
<g
   id="g5"
   transform="translate(0,-0.99999927)"
   style="fill:#ffffff">
	<g
   id="Layer_8"
   style="fill:#ffffff">
		<path
   d="M 301.201,7.721 V 349.19 c 0,4.269 -3.457,7.729 -7.715,7.729 h -63.705 c -4.268,0 -7.727,-3.46 -7.727,-7.729 V 7.721 C 222.054,3.458 225.513,0 229.781,0 h 63.705 c 4.258,0 7.715,3.458 7.715,7.721 z M 127.142,0 H 63.438 C 59.172,0 55.717,3.458 55.717,7.721 V 349.19 c 0,4.269 3.455,7.729 7.721,7.729 h 63.703 c 4.265,0 7.723,-3.46 7.723,-7.729 V 7.721 C 134.864,3.458 131.407,0 127.142,0 Z"
   id="path2"
   inkscape:connector-curvature="0"
   style="fill:#ffffff" />
	</g>
</g>
<g
   id="g7"
   transform="translate(0,-0.99999927)">
</g>
<g
   id="g9"
   transform="translate(0,-0.99999927)">
</g>
<g
   id="g11"
   transform="translate(0,-0.99999927)">
</g>
<g
   id="g13"
   transform="translate(0,-0.99999927)">
</g>
<g
   id="g15"
   transform="translate(0,-0.99999927)">
</g>
<g
   id="g17"
   transform="translate(0,-0.99999927)">
</g>
<g
   id="g19"
   transform="translate(0,-0.99999927)">
</g>
<g
   id="g21"
   transform="translate(0,-0.99999927)">
</g>
<g
   id="g23"
   transform="translate(0,-0.99999927)">
</g>
<g
   id="g25"
   transform="translate(0,-0.99999927)">
</g>
<g
   id="g27"
   transform="translate(0,-0.99999927)">
</g>
<g
   id="g29"
   transform="translate(0,-0.99999927)">
</g>
<g
   id="g31"
   transform="translate(0,-0.99999927)">
</g>
<g
   id="g33"
   transform="translate(0,-0.99999927)">
</g>
<g
   id="g35"
   transform="translate(0,-0.99999927)">
</g>
</svg>